<svg width="99" height="42" viewBox="0 0 99 42" fill="none" xmlns="http://www.w3.org/2000/svg">
<path fill-rule="evenodd" clip-rule="evenodd" d="M35.6646 6.75488V13.8263L45.4275 19.463V22.435L54.2142 17.4133L45.4006 12.3491V9.11203H42.326V10.5825L35.6646 6.75488Z" fill="url(#paint0_linear_942_64)"/>
<path fill-rule="evenodd" clip-rule="evenodd" d="M52.1644 35.143V28.0716L42.4015 22.4349V19.4629L33.6147 24.4846L42.3259 29.49V33.0933H45.4005V31.2565L52.1644 35.143Z" fill="url(#paint1_linear_942_64)"/>
<path d="M16.0058 18.2496C16.3508 17.333 16.916 16.6457 17.7015 16.1874C18.5063 15.7292 19.3972 15.5 20.3744 15.5V19.6243C19.2439 19.4906 18.2285 19.7198 17.328 20.3116C16.4466 20.9036 16.0058 21.8869 16.0058 23.2617V30.1068H12.2983V15.7864H16.0058V18.2496Z" fill="#0F172A"/>
<path d="M31.1553 19.3375H27.9077V25.2948C27.9077 25.7912 28.0322 26.154 28.2813 26.3831C28.5304 26.6122 28.8944 26.7459 29.3734 26.7841C29.8525 26.8032 30.4465 26.7936 31.1553 26.7554V30.1064C28.6071 30.3928 26.8059 30.1542 25.7521 29.3904C24.7175 28.6267 24.2001 27.2615 24.2001 25.2948V19.3375H21.6997V15.7861H24.2001V12.8933L27.9077 11.7764V15.7861H31.1553V19.3375Z" fill="#0F172A"/>
<path d="M59.7313 24.162C60.2292 25.9623 61.579 26.8624 63.781 26.8624C65.1979 26.8624 66.2701 26.3836 66.9978 25.426L69.9847 27.1497C68.5678 29.1988 66.4807 30.2234 63.7236 30.2234C61.3492 30.2234 59.4441 29.5052 58.008 28.0688C56.572 26.6325 55.854 24.8227 55.854 22.6395C55.854 20.4755 56.5625 18.6752 57.9793 17.2389C59.3963 15.7834 61.2153 15.0557 63.4363 15.0557C65.5425 15.0557 67.2754 15.7834 68.6348 17.2389C70.0134 18.6944 70.7027 20.4946 70.7027 22.6395C70.7027 23.1183 70.6548 23.6258 70.5591 24.162H59.7313ZM59.6739 21.2894H66.9978C66.787 20.3126 66.3467 19.5849 65.6765 19.1062C65.0255 18.6274 64.2788 18.3879 63.4363 18.3879C62.4407 18.3879 61.6173 18.6465 60.9663 19.1635C60.3154 19.6615 59.8845 20.3701 59.6739 21.2894Z" fill="#0F172A"/>
<path d="M81.2734 15.0557C82.8436 15.0557 84.136 15.5823 85.1508 16.6357C86.1848 17.6889 86.7017 19.1444 86.7017 21.0021V29.8212H82.9967V21.4618C82.9967 20.5041 82.7382 19.7764 82.2213 19.2785C81.7043 18.7614 81.015 18.5028 80.1534 18.5028C79.196 18.5028 78.4301 18.7997 77.8557 19.3934C77.2812 19.9871 76.9941 20.8776 76.9941 22.065V29.8212H73.2891V15.4578H76.9941V17.0665C77.894 15.7259 79.3205 15.0557 81.2734 15.0557Z" fill="#0F172A"/>
<defs>
<linearGradient id="paint0_linear_942_64" x1="54.2654" y1="17.3108" x2="34.9637" y2="8.06107" gradientUnits="userSpaceOnUse">
<stop stop-color="#50B4DC"/>
<stop offset="0.348958" stop-color="#50B4DC"/>
<stop offset="1" stop-color="#8043F5"/>
</linearGradient>
<linearGradient id="paint1_linear_942_64" x1="45.9812" y1="31.2998" x2="33.5953" y2="25.3205" gradientUnits="userSpaceOnUse">
<stop stop-color="#10B981"/>
<stop offset="1" stop-color="#0EA5E9"/>
</linearGradient>
</defs>
</svg>
